# xmcd CD database file
#
# Track frame offsets:
#	150
#	18095
#	32977
#	52357
#	69351
#	84347
#	96616
#	108349
#	130506
#	145905
#	157188
#	169499
#	184649
#	196680
#
# Disc length: 2816 seconds
#
# Revision: 0
# Processed by: cddbd v1.5.2PL0 Copyright (c) Steve Scherf et al.
# Submitted via: ACXtractor (MTCDDB.DLL V2003.07.15)
#
DISCID=c10afe0e
DTITLE=Bushfire - Bushfire Live
DYEAR=2007
DGENRE=Rock
TTITLE0=This Girl
TTITLE1=9lb Hammer
TTITLE2=Tomorrows Child
TTITLE3=Life on the Land
TTITLE4=Angel Band
TTITLE5=Do What you Do
TTITLE6=Salty Dog Blues
TTITLE7=Medley
TTITLE8=Keep on the Sunny Side
TTITLE9=Top of the World
TTITLE10=In the Jailhouse
TTITLE11=Man of Constant Sorrow
TTITLE12=Arkansas Traveller
TTITLE13=Hot Corn Cold Corn
EXTD=ID3G:  17 YEAR: 2007
EXTT0=
EXTT1=
EXTT2=
EXTT3=
EXTT4=
EXTT5=
EXTT6=
EXTT7=
EXTT8=
EXTT9=
EXTT10=
EXTT11=
EXTT12=
EXTT13=
PLAYORDER=
